<svg height="16" viewBox="0 0 8 16" width="8" xmlns="http://www.w3.org/2000/svg"><path d="m1.33333333 13.3333333c-.736375 0-1.33333333.5969584-1.33333333 1.3333334s.59695833 1.3333333 1.33333333 1.3333333 1.33333334-.5969583 1.33333334-1.3333333-.59695834-1.3333334-1.33333334-1.3333334zm0-6.66666663c-.736375 0-1.33333333.59695833-1.33333333 1.33333333s.59695833 1.33333333 1.33333333 1.33333333 1.33333334-.59695833 1.33333334-1.33333333-.59695834-1.33333333-1.33333334-1.33333333zm0-6.66666667c-.736375 0-1.33333333.59695833-1.33333333 1.33333333s.59695833 1.33333334 1.33333333 1.33333334 1.33333334-.59695834 1.33333334-1.33333334-.59695834-1.33333333-1.33333334-1.33333333zm5.33333334 13.3333333c-.736375 0-1.33333334.5969584-1.33333334 1.3333334s.59695834 1.3333333 1.33333334 1.3333333 1.33333333-.5969583 1.33333333-1.3333333-.59695833-1.3333334-1.33333333-1.3333334zm0-6.66666663c-.736375 0-1.33333334.59695833-1.33333334 1.33333333s.59695834 1.33333333 1.33333334 1.33333333 1.33333333-.59695833 1.33333333-1.33333333-.59695833-1.33333333-1.33333333-1.33333333zm0-6.66666667c-.736375 0-1.33333334.59695833-1.33333334 1.33333333s.59695834 1.33333334 1.33333334 1.33333334 1.33333333-.59695834 1.33333333-1.33333334-.59695833-1.33333333-1.33333333-1.33333333z" fill="#cfd4e2" fill-rule="evenodd"/></svg>